<svg width="714" height="714" viewBox="0 0 714 714" fill="none" xmlns="http://www.w3.org/2000/svg">
<path d="M407.387 82.2527L60.8613 411.835C36.214 435.276 46.1815 476.609 78.8113 486.234L537.499 621.544C570.129 631.176 600.938 601.902 592.956 568.801L480.793 103.908C472.818 70.843 432.034 58.8121 407.387 82.2527Z" fill="#FFF1C9"/>
<path d="M403.931 493.138H253.834C231.049 538.127 219.647 588.018 220.626 638.437L433.755 638.63C432.986 612.019 429.759 585.536 424.116 559.519C419.175 536.888 412.425 514.689 403.931 493.138Z" fill="#F9B800"/>
<path d="M390.822 312.489H270.827V440.402H390.822V312.489Z" fill="#262626"/>
<path d="M343.512 291.176H314.438C305.222 291.176 296.383 287.515 289.866 280.998C283.349 274.481 279.688 265.642 279.688 256.426V219.691C279.688 210.698 283.26 202.073 289.619 195.714C295.978 189.355 304.603 185.783 313.596 185.783H343.391C355.272 185.783 366.666 190.502 375.067 198.903C383.468 207.304 388.187 218.698 388.187 230.579V246.501C388.187 258.35 383.481 269.713 375.102 278.091C366.724 286.47 355.361 291.176 343.512 291.176Z" fill="#262626"/>
<path d="M377 282L396.469 217.548C396.741 216.647 397.207 215.817 397.836 215.118C398.464 214.419 399.239 213.867 400.105 213.502C400.971 213.136 401.906 212.967 402.845 213.005C403.784 213.044 404.703 213.289 405.536 213.724L426.559 224.672C427.471 225.147 428.256 225.835 428.845 226.679C429.435 227.522 429.813 228.496 429.946 229.517C430.079 230.538 429.965 231.576 429.612 232.544C429.258 233.511 428.677 234.378 427.918 235.072L377 282Z" fill="#D3B970"/>
<path d="M372 279L427.355 245.002C428.215 244.475 429.184 244.146 430.191 244.038C431.197 243.931 432.215 244.049 433.169 244.383C434.123 244.717 434.989 245.258 435.702 245.967C436.415 246.676 436.957 247.534 437.288 248.478L444.63 269.447C444.979 270.443 445.083 271.507 444.934 272.55C444.784 273.593 444.385 274.586 443.77 275.448C443.154 276.309 442.34 277.013 441.394 277.503C440.448 277.992 439.398 278.253 438.33 278.263L372 279Z" fill="#D3B970"/>
<path d="M391 283C388.627 283 386.307 282.267 384.333 280.893C382.36 279.52 380.822 277.568 379.913 275.284C379.005 272.999 378.768 270.486 379.231 268.061C379.694 265.637 380.837 263.409 382.515 261.661C384.193 259.913 386.331 258.723 388.659 258.24C390.987 257.758 393.399 258.005 395.592 258.952C397.785 259.898 399.659 261.5 400.978 263.555C402.296 265.611 403 268.028 403 270.5C402.996 273.814 401.73 276.991 399.48 279.334C397.231 281.677 394.181 282.995 391 283ZM391 261.439C389.28 261.439 387.598 261.97 386.167 262.966C384.737 263.962 383.622 265.377 382.963 267.032C382.305 268.688 382.133 270.51 382.468 272.268C382.804 274.025 383.633 275.64 384.849 276.907C386.066 278.174 387.616 279.037 389.303 279.387C390.99 279.737 392.739 279.557 394.329 278.871C395.918 278.186 397.277 277.024 398.233 275.534C399.189 274.044 399.699 272.292 399.699 270.5C399.694 268.098 398.777 265.796 397.146 264.098C395.516 262.399 393.306 261.443 391 261.439Z" fill="#262626"/>
<path d="M372.037 254.677C372.449 250.779 371.31 246.876 368.866 243.812C366.422 240.747 362.87 238.769 358.978 238.305L359.07 228.23C359.121 225.035 358.539 221.861 357.36 218.891C356.181 215.921 354.427 213.213 352.198 210.923C349.97 208.632 347.312 206.804 344.375 205.543C341.439 204.283 338.283 203.614 335.087 203.576L297.959 203.312C293.096 203.306 288.428 205.229 284.98 208.66C281.532 212.09 279.585 216.748 279.567 221.611L279.174 266.958C279.119 270.761 279.815 274.538 281.221 278.072C282.627 281.606 284.716 284.829 287.369 287.555C290.021 290.281 293.185 292.457 296.68 293.96C300.174 295.462 303.931 296.261 307.734 296.31H309.447L309.219 321.443L358.278 321.793L358.549 292.026H358.506L358.728 268.086C362.151 267.724 365.344 266.193 367.769 263.75C370.193 261.307 371.701 258.102 372.037 254.677Z" fill="white"/>
<path d="M470.926 375.482L408.056 402.179L434.406 481.877C434.406 481.877 446.665 515.081 479.249 504.57C485.831 502.394 491.904 498.907 497.101 494.32C502.298 489.732 506.511 484.139 509.487 477.877L553.62 386.386C553.62 386.386 602.002 376.77 614.204 337.213C614.638 335.966 614.834 334.648 614.781 333.329C614.685 331.353 614.042 329.443 612.923 327.812C613.534 326.806 614.059 325.75 614.491 324.655C615.467 322.17 616.406 319.744 614.605 317.346C613.863 316.294 612.744 315.569 611.48 315.322C610.217 315.075 608.907 315.325 607.823 316.02C608.652 313.45 608.236 311.033 606.749 309.8C606.134 309.319 605.388 309.038 604.609 308.992C600.92 308.729 597.597 313.397 596.654 314.698C592.807 319.953 584.997 328.667 573.528 340.816C573.528 340.816 589.975 323.735 583.237 317.546C581.225 315.703 578.291 317.527 576.63 318.878C573.559 321.354 572.003 325.131 569.57 328.123C566.39 331.859 562.407 334.828 557.918 336.806C550.821 340.105 543.281 341.358 536.638 345.646C533.616 347.574 530.846 349.87 528.391 352.48C525.513 355.572 524.125 359.487 521.575 362.658L482.152 411.437L470.926 375.482Z" fill="white"/>
<path d="M462.721 507.771C441.697 504.999 433.164 482.65 433.064 482.37L406.294 401.378L471.819 373.555L482.711 408.487L520.443 361.775C521.503 360.391 522.452 358.927 523.282 357.396C524.404 355.295 525.76 353.328 527.325 351.533C529.859 348.827 532.72 346.446 535.843 344.447C540 341.754 544.51 340.217 548.84 338.728C551.705 337.809 554.52 336.737 557.271 335.519C561.577 333.642 565.399 330.808 568.446 327.234C569.302 326.14 570.094 324.999 570.82 323.816C572.188 321.685 573.601 319.487 575.714 317.778C580.273 314.058 582.977 315.401 584.184 316.511C584.84 317.116 585.363 317.85 585.721 318.667C586.079 319.484 586.265 320.366 586.266 321.258C586.264 322.838 585.97 324.403 585.398 325.875C590.143 320.588 593.441 316.659 595.487 313.868L595.542 313.781C596.719 312.172 600.297 307.264 604.698 307.585C605.771 307.637 606.801 308.024 607.642 308.694C608.352 309.333 608.904 310.129 609.253 311.019C609.602 311.909 609.739 312.868 609.652 313.82C610.811 313.686 611.984 313.862 613.053 314.331C614.121 314.799 615.045 315.543 615.732 316.487C618.03 319.534 616.797 322.662 615.81 325.175C615.461 326.07 615.051 326.94 614.581 327.779C615.445 329.262 615.979 330.915 616.145 332.623C616.311 334.332 616.106 336.056 615.544 337.679C610.489 354.174 598.161 368.09 579.995 377.887C571.982 382.222 563.44 385.499 554.584 387.637L510.772 478.494C507.704 484.925 503.368 490.67 498.025 495.385C492.682 500.1 486.442 503.687 479.679 505.93C474.235 507.802 468.44 508.431 462.721 507.771ZM409.821 402.981L435.76 481.429C438.06 486.96 441.428 491.983 445.672 496.211C454.728 505.032 465.876 507.387 478.806 503.208C485.201 501.084 491.1 497.69 496.15 493.23C501.201 488.77 505.299 483.336 508.198 477.254L552.653 385.128L553.355 384.99C553.829 384.894 601.051 375.061 612.853 336.791C613.237 335.701 613.411 334.549 613.365 333.394C613.28 331.683 612.723 330.03 611.756 328.616L611.24 327.828L611.718 327.041C612.288 326.107 612.776 325.126 613.178 324.108C614.188 321.526 614.746 319.864 613.478 318.177C612.958 317.422 612.167 316.895 611.269 316.707C610.371 316.519 609.436 316.684 608.656 317.167L605.182 319.59L606.483 315.57C607.117 313.601 606.868 311.717 605.86 310.9C605.476 310.601 605.007 310.431 604.52 310.414C602.651 310.275 600.411 311.975 597.878 315.451L597.817 315.529C594.172 320.507 587.109 328.521 574.961 341.402L574.584 341.806L572.518 339.834L573.062 339.257C576.425 335.596 583.619 326.699 583.456 321.327C583.465 320.816 583.366 320.309 583.166 319.838C582.967 319.368 582.67 318.944 582.296 318.596C581.011 317.418 578.554 319.175 577.554 319.987C575.798 321.397 574.573 323.317 573.247 325.346C572.457 326.615 571.601 327.841 570.681 329.019C567.372 332.928 563.216 336.032 558.53 338.097C555.673 339.36 552.751 340.467 549.775 341.415C545.385 342.918 541.238 344.33 537.372 346.83C534.469 348.709 531.811 350.943 529.459 353.479C528.042 355.119 526.815 356.914 525.801 358.83C524.892 360.488 523.86 362.076 522.712 363.579L481.61 414.434L470.063 377.421L409.821 402.981Z" fill="#262626"/>
<path d="M353.718 259.219C353.537 259.139 353.361 259.049 353.19 258.951C352.214 258.324 351.447 257.423 350.983 256.361C350.52 255.298 350.382 254.123 350.587 252.982C350.792 251.841 351.33 250.787 352.134 249.952C352.938 249.117 353.972 248.539 355.104 248.292C356.236 248.044 357.416 248.137 358.495 248.56C359.575 248.983 360.504 249.716 361.167 250.667C361.829 251.618 362.195 252.744 362.218 253.903C362.24 255.062 361.919 256.201 361.294 257.177C360.51 258.399 359.301 259.287 357.901 259.669C356.5 260.052 355.008 259.901 353.711 259.247L353.718 259.219ZM357.73 251.31C357.211 251.047 356.627 250.94 356.048 251.003C355.47 251.065 354.922 251.294 354.471 251.661C354.02 252.029 353.686 252.519 353.508 253.073C353.331 253.627 353.317 254.221 353.47 254.782C353.623 255.343 353.936 255.848 354.37 256.235C354.804 256.622 355.341 256.875 355.916 256.963C356.492 257.051 357.08 256.97 357.61 256.73C358.14 256.49 358.589 256.102 358.902 255.612C359.33 254.94 359.475 254.125 359.304 253.347C359.133 252.569 358.661 251.89 357.991 251.459L357.73 251.31Z" fill="#262626"/>
<path d="M310.09 294.918L339.364 294.204C339.554 294.196 339.741 294.258 339.889 294.377C340.038 294.496 340.139 294.664 340.174 294.851C340.208 295.039 340.174 295.232 340.078 295.396C339.982 295.56 339.83 295.685 339.65 295.746L309.969 306.456L310.09 294.918Z" fill="#262626"/>
<path d="M351.489 253.925C351.171 253.766 350.924 253.494 350.796 253.163C350.668 252.831 350.669 252.464 350.797 252.133C351.37 250.647 352.324 249.338 353.564 248.337C354.803 247.337 356.284 246.681 357.858 246.435C359.347 246.242 360.861 246.408 362.273 246.919C363.685 247.431 364.954 248.273 365.974 249.375C366.108 249.514 366.213 249.678 366.282 249.858C366.351 250.037 366.383 250.23 366.376 250.422C366.369 250.615 366.324 250.804 366.241 250.978C366.159 251.153 366.043 251.309 365.899 251.437C365.755 251.565 365.587 251.663 365.404 251.724C365.221 251.785 365.028 251.809 364.836 251.794C364.644 251.778 364.457 251.724 364.286 251.635C364.115 251.545 363.964 251.422 363.843 251.273C363.139 250.528 362.272 249.959 361.309 249.609C360.346 249.26 359.315 249.141 358.298 249.261C357.222 249.429 356.208 249.878 355.361 250.563C354.513 251.247 353.861 252.143 353.47 253.16C353.402 253.335 353.301 253.495 353.171 253.631C353.042 253.767 352.887 253.875 352.715 253.951C352.544 254.027 352.359 254.068 352.172 254.073C351.984 254.077 351.798 254.044 351.623 253.977L351.489 253.925Z" fill="#262626"/>
<path d="M204.42 370.138L268.138 394.744L244.435 475.269C244.435 475.269 233.273 508.86 200.366 499.431C193.715 497.476 187.529 494.192 182.183 489.778C176.837 485.365 172.442 479.912 169.263 473.751L122.125 383.769C122.125 383.769 73.4516 375.756 59.9572 336.623C59.4819 335.391 59.2427 334.08 59.2522 332.759C59.279 330.784 59.8539 328.854 60.9129 327.186C60.2687 326.201 59.7094 325.163 59.241 324.084C58.1847 321.639 57.1648 319.238 58.8928 316.781C59.5997 315.707 60.6933 314.947 61.9462 314.659C63.1991 314.37 64.515 314.576 65.6203 315.232C64.7073 312.691 65.0502 310.261 66.4882 308.98C67.0887 308.483 67.8246 308.177 68.6008 308.102C72.2787 307.717 75.7544 312.273 76.7391 313.543C80.7648 318.666 88.8602 327.124 100.715 338.883C100.715 338.883 83.7132 322.353 90.2437 315.945C92.193 314.037 95.1868 315.771 96.8981 317.058C100.049 319.431 101.723 323.163 104.252 326.066C107.557 329.691 111.635 332.525 116.185 334.359C123.387 337.422 130.964 338.425 137.753 342.49C140.834 344.319 143.679 346.522 146.221 349.048C149.192 352.044 150.714 355.903 153.367 358.988L194.373 406.44L204.42 370.138Z" fill="white"/>
<path d="M216.987 502.084C211.291 502.939 205.475 502.502 199.971 500.806C193.138 498.786 186.784 495.407 181.289 490.871C175.795 486.335 171.273 480.736 167.996 474.41L121.157 385.058C112.234 383.217 103.589 380.224 95.4378 376.153C76.9667 366.967 64.2199 353.453 58.5717 337.091C57.9644 335.496 57.7082 333.788 57.8208 332.085C57.9333 330.381 58.4118 328.722 59.2238 327.22C58.7338 326.394 58.2949 325.539 57.9094 324.659C56.839 322.173 55.5392 319.088 57.6998 315.965C58.3556 315.001 59.2552 314.228 60.3071 313.724C61.359 313.221 62.5256 313.005 63.688 313.099C63.5712 312.151 63.6767 311.188 63.996 310.287C64.3153 309.387 64.8398 308.572 65.5279 307.909C66.3464 307.214 67.3625 306.792 68.4332 306.704C72.8225 306.245 76.5598 311.025 77.7895 312.595L77.854 312.678C80.0286 315.452 83.4041 319.228 88.336 324.36C87.7119 322.904 87.3651 321.343 87.3135 319.76C87.2825 318.868 87.4375 317.979 87.7688 317.151C88.1 316.322 88.6003 315.571 89.2376 314.947C90.4079 313.798 93.0715 312.401 97.7456 315.933C99.906 317.573 101.399 319.728 102.836 321.806C103.598 322.967 104.428 324.081 105.321 325.144C108.474 328.616 112.375 331.326 116.73 333.068C119.522 334.19 122.37 335.168 125.263 335.997C129.668 337.337 134.227 338.732 138.442 341.283C141.629 343.18 144.569 345.464 147.196 348.084C148.817 349.826 150.235 351.748 151.423 353.81C152.31 355.313 153.31 356.747 154.413 358.099L193.673 403.531L203.406 368.258L269.822 393.908L245.734 475.691C245.697 475.994 237.901 498.62 216.987 502.084ZM62.6064 315.963C61.5785 316.154 60.6671 316.742 60.0693 317.599C58.8503 319.328 59.4637 320.978 60.5645 323.517C60.9942 324.523 61.5126 325.488 62.1133 326.402L62.6173 327.172L62.1352 327.976C61.2087 329.417 60.7059 331.091 60.6842 332.804C60.6713 333.943 60.8782 335.074 61.2935 336.134C74.3806 374.075 121.882 382.311 122.366 382.39L123.065 382.506L170.531 473.114C173.629 479.099 177.904 484.397 183.099 488.689C188.295 492.98 194.304 496.179 200.766 498.091C213.857 501.843 224.946 499.101 233.711 489.928C237.797 485.567 240.982 480.443 243.083 474.849L266.395 395.633L205.383 372.071L195.058 409.403L152.298 359.925C151.097 358.464 150.013 356.911 149.054 355.281C147.975 353.401 146.689 351.648 145.221 350.054C142.762 347.621 140.012 345.502 137.033 343.745C133.087 341.374 128.902 340.098 124.465 338.742C121.474 337.889 118.53 336.876 115.647 335.708C110.893 333.799 106.636 330.834 103.196 327.037C102.236 325.893 101.342 324.695 100.518 323.45C99.1462 321.462 97.8522 319.592 96.0353 318.236C95.009 317.458 92.4882 315.784 91.2427 317.003C90.8818 317.365 90.6002 317.798 90.4162 318.274C90.2322 318.751 90.1498 319.261 90.1741 319.771C90.1886 325.146 97.6113 333.737 101.137 337.329L101.718 337.906L99.7178 339.946L99.3274 339.554C86.7333 327.05 79.4143 319.302 75.6301 314.458L75.5657 314.374C72.9128 310.985 70.6255 309.366 68.7542 309.561C68.2691 309.597 67.8071 309.783 67.4308 310.091C66.4556 310.976 66.2636 312.832 66.9706 314.785L68.3951 318.753L64.8502 316.446C64.1901 316.007 63.3884 315.835 62.6064 315.963Z" fill="#262626"/>
<path d="M287.591 252.52C289.175 252.321 290.298 250.875 290.099 249.29C289.9 247.705 288.454 246.582 286.869 246.782C285.285 246.981 284.162 248.427 284.361 250.011C284.56 251.596 286.006 252.719 287.591 252.52Z" fill="#262626"/>
<path d="M318.305 248.183C319.89 247.984 321.013 246.538 320.814 244.953C320.615 243.369 319.169 242.246 317.584 242.445C315.999 242.644 314.876 244.09 315.076 245.675C315.275 247.259 316.721 248.382 318.305 248.183Z" fill="#262626"/>
<path d="M300.173 260.911C300.011 260.93 299.847 260.922 299.688 260.886C297.474 260.445 295.217 259.663 294.983 257.807C294.964 257.457 295.014 257.107 295.13 256.776C295.247 256.445 295.427 256.14 295.662 255.88C295.822 255.67 295.97 255.452 296.105 255.227C296.707 254.206 296.997 253.031 296.94 251.847L296.567 239.265C296.555 238.885 296.695 238.515 296.956 238.238C297.216 237.961 297.577 237.799 297.957 237.788C298.337 237.776 298.706 237.916 298.983 238.177C299.26 238.438 299.423 238.798 299.434 239.178L299.794 251.769C299.866 253.488 299.44 255.19 298.568 256.673C298.384 256.984 298.22 257.22 298.079 257.418C298.798 257.73 299.551 257.957 300.323 258.093C300.653 258.163 300.949 258.348 301.156 258.615C301.363 258.882 301.469 259.214 301.454 259.552C301.44 259.889 301.306 260.211 301.077 260.459C300.847 260.708 300.537 260.866 300.202 260.908L300.173 260.911Z" fill="#262626"/>
<path d="M306.007 272.757C303.828 272.969 301.632 272.602 299.641 271.693C299.465 271.616 299.306 271.504 299.174 271.365C299.042 271.225 298.94 271.059 298.873 270.879C298.807 270.699 298.777 270.507 298.787 270.315C298.796 270.123 298.845 269.934 298.928 269.761C299.012 269.588 299.13 269.434 299.276 269.308C299.421 269.182 299.59 269.086 299.772 269.027C299.955 268.967 300.148 268.945 300.34 268.963C300.531 268.98 300.718 269.035 300.887 269.126C300.941 269.155 304.091 270.623 306.88 269.632C307.64 269.334 308.331 268.885 308.911 268.311C309.491 267.737 309.948 267.05 310.253 266.293C310.414 265.95 310.705 265.686 311.061 265.557C311.417 265.429 311.81 265.447 312.153 265.608C312.496 265.769 312.761 266.06 312.889 266.416C313.018 266.773 312.999 267.165 312.838 267.508C312.277 268.917 311.346 270.148 310.144 271.072C308.942 271.995 307.512 272.578 306.007 272.757Z" fill="#262626"/>
<path d="M253.834 493.138L241.339 432.448C239.213 422.128 239.753 411.436 242.91 401.382L270.828 312.482H295.725L301.437 325.163C313.696 352.388 352.552 351.802 363.99 324.227L368.86 312.482H390.822L418.333 402.867C421.883 414.518 422.059 426.935 418.84 438.682L403.931 493.138H253.834Z" fill="#F9B800"/>
<path d="M333.795 224.01H320.001C315.736 224.01 311.646 222.316 308.631 219.301C305.615 216.285 303.921 212.196 303.921 207.931V197.592H333.795V224.01Z" fill="#262626"/>
<path d="M390.822 312.489L420.146 410.429L475.296 377.892C469.202 366.718 462.432 355.926 455.025 345.576C441.952 327.326 435.176 318.108 423.695 313.446C411.493 308.448 399.233 310.183 390.822 312.489Z" fill="#262626"/>
<path d="M372.115 239.59H347.339C344.95 239.589 342.585 239.117 340.378 238.202C338.171 237.287 336.166 235.946 334.477 234.256C332.789 232.566 331.449 230.56 330.536 228.353C329.623 226.145 329.153 223.779 329.154 221.39V213.165H372.122L372.115 239.59Z" fill="#262626"/>
<path d="M363.362 197.592H320.665V224.017H363.362V197.592Z" fill="#262626"/>
<path d="M383.853 339.114C402.616 339.114 417.826 323.904 417.826 305.142C417.826 286.38 402.616 271.17 383.853 271.17C365.091 271.17 349.881 286.38 349.881 305.142C349.881 323.904 365.091 339.114 383.853 339.114Z" fill="#262626"/>
<path d="M359.02 362.798C372.913 362.798 384.175 351.536 384.175 337.643C384.175 323.751 372.913 312.489 359.02 312.489C345.128 312.489 333.866 323.751 333.866 337.643C333.866 351.536 345.128 362.798 359.02 362.798Z" fill="#262626"/>
<path d="M404.181 364.226C418.073 364.226 429.335 352.964 429.335 339.071C429.335 325.179 418.073 313.917 404.181 313.917C390.289 313.917 379.027 325.179 379.027 339.071C379.027 352.964 390.289 364.226 404.181 364.226Z" fill="#262626"/>
<path d="M352.916 449.534H308.726C302.136 449.527 295.817 446.905 291.158 442.244C286.498 437.583 283.878 431.264 283.872 424.673V394.785C283.872 391.585 285.142 388.515 287.403 386.25C289.664 383.985 292.731 382.71 295.932 382.704H365.711C368.91 382.708 371.977 383.98 374.239 386.242C376.501 388.504 377.774 391.571 377.777 394.771V424.659C377.774 431.252 375.154 437.575 370.492 442.239C365.831 446.903 359.51 449.527 352.916 449.534ZM295.932 385.56C293.491 385.564 291.151 386.536 289.425 388.262C287.7 389.989 286.73 392.33 286.728 394.771V424.659C286.734 430.492 289.053 436.085 293.177 440.21C297.301 444.335 302.893 446.657 308.726 446.664H352.916C358.75 446.658 364.344 444.338 368.47 440.213C372.595 436.087 374.916 430.493 374.921 424.659V394.785C374.921 392.341 373.951 389.997 372.224 388.267C370.498 386.537 368.155 385.564 365.711 385.56H295.932Z" fill="white"/>
<path d="M379.027 397.034C392.919 397.034 404.181 385.772 404.181 371.88C404.181 357.988 392.919 346.726 379.027 346.726C365.134 346.726 353.873 357.988 353.873 371.88C353.873 385.772 365.134 397.034 379.027 397.034Z" fill="#262626"/>
<path d="M462.96 434.257C462.703 434.223 462.461 434.119 462.259 433.957C462.057 433.795 461.903 433.582 461.813 433.339C461.723 433.097 461.7 432.834 461.748 432.58C461.795 432.325 461.911 432.089 462.083 431.895L481.071 410.51C481.195 410.37 481.346 410.255 481.515 410.173C481.684 410.09 481.867 410.042 482.054 410.031C482.242 410.019 482.43 410.045 482.607 410.106C482.785 410.167 482.948 410.263 483.089 410.387C483.23 410.512 483.344 410.663 483.427 410.832C483.509 411 483.557 411.184 483.568 411.371C483.58 411.559 483.554 411.746 483.493 411.924C483.432 412.101 483.336 412.265 483.212 412.406L464.217 433.789C464.062 433.965 463.866 434.099 463.647 434.18C463.428 434.262 463.192 434.288 462.96 434.257Z" fill="#262626"/>
<path d="M593.556 355.83C593.27 355.793 593.002 355.67 592.787 355.478C592.572 355.285 592.42 355.032 592.352 354.752C592.284 354.471 592.302 354.177 592.404 353.907C592.507 353.638 592.688 353.405 592.926 353.241C602.687 346.447 611.23 327.913 611.312 327.729C611.39 327.558 611.501 327.405 611.638 327.276C611.775 327.148 611.937 327.049 612.113 326.983C612.288 326.917 612.476 326.887 612.663 326.893C612.851 326.9 613.035 326.943 613.206 327.021C613.377 327.099 613.531 327.21 613.659 327.347C613.787 327.484 613.887 327.645 613.952 327.821C614.018 327.997 614.049 328.184 614.042 328.372C614.036 328.56 613.992 328.744 613.914 328.915C613.551 329.702 604.965 348.339 594.553 355.587C594.263 355.789 593.907 355.875 593.556 355.83Z" fill="#262626"/>
<path d="M585.766 347.011C585.472 346.973 585.197 346.845 584.979 346.644C584.761 346.444 584.611 346.18 584.55 345.89C584.488 345.601 584.519 345.299 584.636 345.027C584.754 344.755 584.953 344.526 585.206 344.373C594.132 338.895 606.424 315.583 606.547 315.355C606.735 315.044 607.035 314.816 607.385 314.718C607.735 314.62 608.109 314.659 608.431 314.827C608.753 314.995 608.999 315.28 609.119 315.623C609.238 315.967 609.222 316.343 609.074 316.675C608.555 317.665 596.292 340.916 586.7 346.81C586.421 346.982 586.091 347.053 585.766 347.011Z" fill="#262626"/>
<path d="M214.32 428.648C214.091 428.686 213.857 428.667 213.636 428.594C213.416 428.521 213.217 428.395 213.057 428.227L193.365 407.476C193.227 407.342 193.117 407.181 193.043 407.003C192.969 406.826 192.931 406.635 192.932 406.443C192.933 406.251 192.973 406.06 193.05 405.884C193.126 405.707 193.238 405.548 193.377 405.416C193.517 405.283 193.682 405.18 193.862 405.113C194.042 405.046 194.234 405.016 194.426 405.025C194.619 405.034 194.807 405.082 194.98 405.165C195.154 405.249 195.308 405.367 195.435 405.512L215.126 426.256C215.304 426.445 215.428 426.678 215.484 426.931C215.539 427.185 215.525 427.448 215.442 427.694C215.36 427.94 215.211 428.159 215.014 428.327C214.816 428.495 214.576 428.606 214.32 428.648Z" fill="#262626"/>
<path d="M81.2004 354.556C80.8511 354.613 80.4931 354.538 80.1958 354.346C69.554 347.424 60.3535 329.103 59.9646 328.328C59.8701 328.159 59.8108 327.973 59.7904 327.781C59.7701 327.588 59.789 327.394 59.846 327.209C59.9031 327.024 59.9971 326.853 60.1224 326.705C60.2477 326.558 60.4016 326.437 60.5748 326.351C60.748 326.265 60.9369 326.215 61.1301 326.204C61.3232 326.193 61.5165 326.222 61.6984 326.288C61.8802 326.354 62.0466 326.456 62.1877 326.589C62.3287 326.721 62.4414 326.881 62.5189 327.058C62.6138 327.238 71.7651 345.48 81.7395 351.955C81.9793 352.113 82.1662 352.339 82.2757 352.604C82.3852 352.869 82.4122 353.161 82.3532 353.442C82.2943 353.723 82.1521 353.98 81.9452 354.179C81.7383 354.377 81.4763 354.509 81.1933 354.557L81.2004 354.556Z" fill="#262626"/>
<path d="M88.6841 345.478C88.3605 345.531 88.0286 345.471 87.744 345.308C77.9566 339.743 64.9458 316.9 64.381 315.937C64.2884 315.774 64.2288 315.594 64.2057 315.408C64.1827 315.221 64.1965 315.032 64.2465 314.851C64.2965 314.67 64.3817 314.501 64.4971 314.353C64.6126 314.205 64.7561 314.081 64.9194 313.988C65.0827 313.895 65.2627 313.836 65.4491 313.813C65.6354 313.79 65.8245 313.804 66.0055 313.854C66.1865 313.904 66.3558 313.989 66.5039 314.104C66.652 314.22 66.7759 314.363 66.8685 314.526C67.0009 314.758 80.0528 337.673 89.1575 342.831C89.4131 342.977 89.6172 343.199 89.7418 343.466C89.8665 343.733 89.9055 344.031 89.8537 344.321C89.8019 344.611 89.6617 344.878 89.4523 345.085C89.2429 345.292 88.9746 345.43 88.6841 345.478Z" fill="#262626"/>
<path d="M327.19 587.994C326.811 587.994 326.448 587.952 326.18 587.878C325.912 587.803 325.762 587.703 325.762 587.597V568.391C325.762 568.286 325.912 568.185 326.18 568.11C326.448 568.036 326.811 567.994 327.19 567.994C327.568 567.994 327.932 568.036 328.199 568.11C328.467 568.185 328.618 568.286 328.618 568.391V587.597C328.618 587.703 328.467 587.803 328.199 587.878C327.932 587.952 327.568 587.994 327.19 587.994Z" fill="white"/>
<path d="M327.191 527.646C326.812 527.646 326.449 527.495 326.181 527.228C325.913 526.96 325.763 526.597 325.763 526.218V493.138C325.763 492.76 325.913 492.396 326.181 492.129C326.449 491.861 326.812 491.71 327.191 491.71C327.569 491.71 327.933 491.861 328.2 492.129C328.468 492.396 328.619 492.76 328.619 493.138V526.218C328.619 526.597 328.468 526.96 328.2 527.228C327.933 527.495 327.569 527.646 327.191 527.646Z" fill="white"/>
<path d="M415.784 544.973C415.667 544.983 415.549 544.983 415.432 544.973C390.622 540.679 377.679 527.164 371.203 516.508C366.957 509.695 364.168 502.1 363.01 494.187C362.984 493.927 363.009 493.664 363.086 493.414C363.163 493.164 363.288 492.931 363.456 492.729C363.624 492.527 363.831 492.36 364.064 492.236C364.298 492.113 364.554 492.036 364.817 492.01C365.081 491.984 365.347 492.009 365.601 492.085C365.855 492.16 366.091 492.284 366.296 492.45C366.501 492.615 366.671 492.818 366.797 493.049C366.922 493.279 367 493.531 367.026 493.791C368.186 501.152 370.813 508.214 374.758 514.568C383.573 528.895 397.5 537.8 416.155 541.035C416.688 541.08 417.181 541.331 417.525 541.734C417.87 542.136 418.038 542.657 417.993 543.182C417.947 543.707 417.692 544.193 417.284 544.532C416.875 544.872 416.347 545.037 415.814 544.993L415.784 544.973Z" fill="white"/>
<path d="M246.763 543C244.036 542.991 241.312 542.812 238.608 542.465C238.124 542.404 237.684 542.154 237.385 541.77C237.086 541.386 236.953 540.901 237.015 540.42C237.077 539.938 237.328 539.501 237.714 539.205C238.101 538.908 238.59 538.776 239.074 538.837C252.662 540.569 263.601 537.866 271.591 530.828C286.357 517.813 286.347 494.05 286.347 493.814C286.347 493.333 286.54 492.872 286.882 492.531C287.225 492.191 287.689 492 288.174 492C288.658 492 289.123 492.191 289.465 492.531C289.808 492.872 290 493.333 290 493.814C290 494.848 290 519.427 274.029 533.549C266.907 539.835 257.757 543 246.763 543Z" fill="white"/>
<path d="M200.292 375.086L243.374 399.904L270.828 312.489C270.828 312.489 232.764 301.879 200.292 375.086Z" fill="#262626"/>
<path d="M218.048 274.412H107.378C101.833 274.406 96.5171 272.201 92.5964 268.281C88.6757 264.36 86.4705 259.044 86.4649 253.499V164.963C86.4611 162.212 86.9996 159.487 88.0495 156.945C89.0994 154.402 90.6402 152.091 92.5838 150.144C94.5274 148.197 96.8356 146.653 99.3765 145.598C101.917 144.544 104.641 144.001 107.392 144H218.062C223.607 144.006 228.923 146.211 232.844 150.132C236.764 154.052 238.97 159.368 238.975 164.913V253.449C238.979 256.2 238.441 258.925 237.391 261.467C236.341 264.01 234.8 266.321 232.856 268.268C230.913 270.215 228.605 271.76 226.064 272.814C223.523 273.868 220.799 274.411 218.048 274.412ZM107.392 146.856C102.605 146.862 98.0153 148.766 94.6302 152.151C91.2451 155.536 89.3408 160.126 89.3351 164.913V253.449C89.3408 258.236 91.2451 262.826 94.6302 266.211C98.0153 269.596 102.605 271.5 107.392 271.506H218.062C222.85 271.502 227.441 269.599 230.826 266.213C234.212 262.828 236.115 258.237 236.119 253.449V164.913C236.115 160.123 234.21 155.53 230.821 152.144C227.433 148.758 222.838 146.856 218.048 146.856H107.392Z" fill="#262626"/>
<path d="M226.336 194.558H188.866C188.487 194.558 188.124 194.408 187.856 194.14C187.588 193.872 187.438 193.509 187.438 193.13C187.438 192.751 187.588 192.388 187.856 192.12C188.124 191.853 188.487 191.702 188.866 191.702H226.336C226.715 191.702 227.078 191.853 227.346 192.12C227.614 192.388 227.764 192.751 227.764 193.13C227.764 193.509 227.614 193.872 227.346 194.14C227.078 194.408 226.715 194.558 226.336 194.558Z" fill="#262626"/>
<path d="M226.336 209.31H188.866C188.487 209.31 188.124 209.159 187.856 208.891C187.588 208.624 187.438 208.26 187.438 207.882C187.438 207.503 187.588 207.14 187.856 206.872C188.124 206.604 188.487 206.454 188.866 206.454H226.336C226.715 206.454 227.078 206.604 227.346 206.872C227.614 207.14 227.764 207.503 227.764 207.882C227.764 208.26 227.614 208.624 227.346 208.891C227.078 209.159 226.715 209.31 226.336 209.31Z" fill="#262626"/>
<path d="M216.562 224.054H188.865C188.487 224.054 188.124 223.903 187.856 223.635C187.588 223.367 187.438 223.004 187.438 222.626C187.438 222.247 187.588 221.884 187.856 221.616C188.124 221.348 188.487 221.198 188.865 221.198H216.562C216.94 221.198 217.304 221.348 217.571 221.616C217.839 221.884 217.99 222.247 217.99 222.626C217.99 223.004 217.839 223.367 217.571 223.635C217.304 223.903 216.94 224.054 216.562 224.054Z" fill="#262626"/>
<path d="M167.441 238.084H118.525L114.062 222.376H170.468L167.441 238.084ZM120.653 235.228H165.085L166.991 225.232H117.811L120.653 235.228Z" fill="#262626"/>
<path d="M143.471 238.084C143.092 238.084 142.729 237.933 142.461 237.665C142.193 237.398 142.043 237.034 142.043 236.656V223.804C142.043 223.425 142.193 223.062 142.461 222.794C142.729 222.526 143.092 222.376 143.471 222.376C143.85 222.376 144.213 222.526 144.481 222.794C144.749 223.062 144.899 223.425 144.899 223.804V236.656C144.899 237.034 144.749 237.398 144.481 237.665C144.213 237.933 143.85 238.084 143.471 238.084Z" fill="#262626"/>
<path d="M164.841 240.576C166.986 240.576 168.725 238.821 168.725 236.656C168.725 234.491 166.986 232.736 164.841 232.736C162.696 232.736 160.957 234.491 160.957 236.656C160.957 238.821 162.696 240.576 164.841 240.576Z" fill="#262626"/>
<path d="M143.443 240.576C145.608 240.576 147.363 238.821 147.363 236.656C147.363 234.491 145.608 232.736 143.443 232.736C141.278 232.736 139.523 234.491 139.523 236.656C139.523 238.821 141.278 240.576 143.443 240.576Z" fill="#262626"/>
<path d="M121.061 240.576C123.202 240.576 124.938 238.821 124.938 236.656C124.938 234.491 123.202 232.736 121.061 232.736C118.919 232.736 117.184 234.491 117.184 236.656C117.184 238.821 118.919 240.576 121.061 240.576Z" fill="#262626"/>
<path d="M108.385 196.879C108.164 196.88 107.946 196.829 107.748 196.731C107.549 196.633 107.377 196.491 107.243 196.315L99.2461 185.74C98.8765 185.248 98.6513 184.662 98.5956 184.048C98.54 183.435 98.6561 182.818 98.931 182.267C99.2058 181.715 99.6286 181.252 100.152 180.927C100.676 180.602 101.279 180.43 101.895 180.428H126.321C127.264 180.429 128.193 180.653 129.032 181.082C129.871 181.512 130.596 182.134 131.148 182.899L142.186 194.43C142.415 194.708 142.531 195.062 142.51 195.422C142.489 195.782 142.333 196.12 142.073 196.37C141.812 196.619 141.468 196.761 141.107 196.766C140.747 196.772 140.398 196.641 140.13 196.4L128.841 184.627C128.557 184.213 128.177 183.874 127.733 183.64C127.289 183.406 126.794 183.284 126.292 183.284H101.866C101.78 183.283 101.695 183.306 101.622 183.352C101.548 183.397 101.489 183.463 101.452 183.541C101.414 183.617 101.398 183.702 101.406 183.787C101.413 183.871 101.444 183.952 101.495 184.02L109.521 194.587C109.635 194.736 109.719 194.907 109.767 195.089C109.815 195.27 109.827 195.46 109.802 195.646C109.777 195.833 109.715 196.012 109.62 196.175C109.525 196.337 109.399 196.48 109.249 196.593C109 196.78 108.697 196.88 108.385 196.879Z" fill="#262626"/>
<path d="M143.473 225.546H170.133L176.788 195.686C176.891 195.213 176.886 194.722 176.773 194.251C176.661 193.779 176.443 193.339 176.137 192.964C175.831 192.588 175.445 192.286 175.006 192.08C174.567 191.874 174.088 191.769 173.603 191.774H143.473V225.546Z" fill="#FFE18B"/>
<path d="M114.596 225.546H143.47V191.774H107.813C107.283 191.772 106.76 191.897 106.288 192.138C105.816 192.379 105.408 192.728 105.098 193.158C104.788 193.588 104.585 194.086 104.506 194.61C104.427 195.134 104.474 195.67 104.643 196.172L114.596 225.546Z" fill="#FFE18B"/>
<path d="M143.471 221.569C143.092 221.569 142.729 221.418 142.461 221.151C142.193 220.883 142.043 220.52 142.043 220.141V195.408C142.043 195.029 142.193 194.666 142.461 194.398C142.729 194.13 143.092 193.98 143.471 193.98C143.85 193.98 144.213 194.13 144.481 194.398C144.749 194.666 144.899 195.029 144.899 195.408V220.112C144.903 220.302 144.869 220.491 144.799 220.668C144.729 220.844 144.624 221.005 144.491 221.141C144.358 221.276 144.199 221.384 144.024 221.458C143.849 221.531 143.661 221.569 143.471 221.569Z" fill="#262626"/>
<path d="M132.249 543.146H86.3959C84.1014 543.144 81.9014 542.232 80.2789 540.609C78.6564 538.987 77.7441 536.787 77.7422 534.492V488.647C77.746 486.353 78.6591 484.155 80.2814 482.534C81.9037 480.913 84.1026 480.002 86.3959 480H132.235C134.529 480.002 136.729 480.914 138.352 482.537C139.974 484.159 140.886 486.359 140.888 488.654V534.5C140.885 536.79 139.973 538.986 138.354 540.607C136.735 542.228 134.54 543.14 132.249 543.146ZM86.3959 482.856C84.8588 482.858 83.3852 483.469 82.2984 484.556C81.2115 485.643 80.6001 487.117 80.5982 488.654V534.5C80.6001 536.037 81.2115 537.51 82.2984 538.597C83.3852 539.684 84.8588 540.295 86.3959 540.297H132.235C133.772 540.295 135.245 539.684 136.332 538.597C137.419 537.51 138.03 536.037 138.032 534.5V488.647C138.03 487.109 137.419 485.636 136.332 484.549C135.245 483.462 133.772 482.851 132.235 482.849L86.3959 482.856Z" fill="#262626"/>
<path d="M98.9738 506.568C97.5497 506.569 96.1573 506.148 94.9726 505.358C93.788 504.568 92.8644 503.444 92.3187 502.128C91.7731 500.813 91.63 499.365 91.9075 497.969C92.185 496.572 92.8706 495.289 93.8775 494.282C94.8845 493.275 96.1675 492.589 97.5643 492.312C98.9611 492.034 100.409 492.177 101.724 492.723C103.04 493.269 104.164 494.192 104.954 495.377C105.744 496.562 106.165 497.954 106.164 499.378C106.162 501.284 105.404 503.112 104.056 504.46C102.708 505.808 100.88 506.566 98.9738 506.568ZM98.9738 495.037C98.1149 495.036 97.2749 495.289 96.56 495.765C95.8452 496.241 95.2877 496.919 94.958 497.712C94.6284 498.505 94.5414 499.378 94.7081 500.221C94.8748 501.063 95.2877 501.837 95.8945 502.445C96.5013 503.053 97.2748 503.467 98.1171 503.635C98.9594 503.803 99.8326 503.718 100.626 503.389C101.42 503.061 102.098 502.505 102.576 501.791C103.053 501.077 103.308 500.237 103.308 499.378C103.308 498.228 102.851 497.125 102.039 496.311C101.226 495.497 100.124 495.039 98.9738 495.037Z" fill="#262626"/>
<path d="M119.682 528.666C118.26 528.666 116.87 528.244 115.688 527.454C114.505 526.664 113.584 525.541 113.039 524.228C112.495 522.914 112.353 521.468 112.63 520.073C112.908 518.679 113.593 517.398 114.598 516.392C115.604 515.386 116.885 514.702 118.279 514.424C119.674 514.147 121.12 514.289 122.434 514.833C123.747 515.378 124.87 516.299 125.66 517.482C126.45 518.664 126.872 520.054 126.872 521.476C126.87 523.382 126.112 525.21 124.764 526.558C123.416 527.906 121.588 528.664 119.682 528.666ZM119.682 517.142C118.825 517.142 117.987 517.396 117.274 517.873C116.562 518.349 116.006 519.026 115.678 519.818C115.35 520.609 115.264 521.481 115.431 522.322C115.599 523.162 116.011 523.935 116.618 524.541C117.224 525.147 117.996 525.56 118.837 525.727C119.677 525.894 120.549 525.808 121.341 525.48C122.133 525.152 122.81 524.597 123.286 523.884C123.762 523.171 124.016 522.333 124.016 521.476C124.018 520.906 123.907 520.341 123.69 519.813C123.473 519.286 123.154 518.806 122.752 518.402C122.349 517.998 121.871 517.678 121.344 517.459C120.817 517.24 120.253 517.128 119.682 517.128V517.142Z" fill="#262626"/>
<path d="M95.6763 532.9C95.4242 532.896 95.1779 532.824 94.9623 532.693C94.6391 532.498 94.4065 532.182 94.3155 531.815C94.2245 531.449 94.2825 531.061 94.4768 530.737L118.453 490.931C118.649 490.607 118.966 490.373 119.334 490.282C119.702 490.191 120.092 490.25 120.416 490.446C120.741 490.642 120.975 490.959 121.066 491.327C121.157 491.695 121.098 492.085 120.902 492.409L96.9258 532.208C96.7967 532.423 96.6133 532.6 96.3939 532.722C96.1746 532.843 95.9271 532.905 95.6763 532.9Z" fill="#262626"/>
<path d="M641.116 570.802H578.998C574.771 570.799 570.718 569.118 567.729 566.128C564.739 563.139 563.058 559.086 563.055 554.859V431.929C563.062 427.709 564.741 423.664 567.724 420.679C570.706 417.694 574.75 416.011 578.97 416H641.088C645.315 416.004 649.368 417.685 652.357 420.674C655.347 423.663 657.028 427.716 657.031 431.944V554.859C657.026 559.081 655.348 563.128 652.365 566.116C649.383 569.104 645.338 570.789 641.116 570.802ZM578.97 418.856C575.5 418.86 572.173 420.24 569.72 422.693C567.266 425.147 565.886 428.474 565.882 431.944V554.859C565.886 558.329 567.266 561.655 569.72 564.109C572.173 566.562 575.5 567.943 578.97 567.946H641.088C644.558 567.943 647.884 566.562 650.338 564.109C652.792 561.655 654.172 558.329 654.175 554.859V431.929C654.168 428.467 652.79 425.148 650.343 422.698C647.896 420.249 644.579 418.867 641.116 418.856H578.97Z" fill="#262626"/>
<path d="M629.015 507.656H591.073C587.421 507.656 584.461 510.616 584.461 514.268V537.18C584.461 540.832 587.421 543.792 591.073 543.792H629.015C632.666 543.792 635.626 540.832 635.626 537.18V514.268C635.626 510.616 632.666 507.656 629.015 507.656Z" fill="#FFE18B"/>
<path d="M634.288 522.043H585.901C585.522 522.043 585.159 521.893 584.891 521.625C584.623 521.357 584.473 520.994 584.473 520.615C584.473 520.237 584.623 519.874 584.891 519.606C585.159 519.338 585.522 519.188 585.901 519.188H634.288C634.667 519.188 635.03 519.338 635.298 519.606C635.566 519.874 635.716 520.237 635.716 520.615C635.716 520.994 635.566 521.357 635.298 521.625C635.03 521.893 634.667 522.043 634.288 522.043Z" fill="#262626"/>
<path d="M600.816 539.337H594.611C593.295 539.287 592.049 538.73 591.135 537.781C590.221 536.832 589.711 535.567 589.711 534.249C589.711 532.932 590.221 531.666 591.135 530.718C592.049 529.769 593.295 529.211 594.611 529.162H600.816C602.132 529.211 603.378 529.769 604.292 530.718C605.205 531.666 605.716 532.932 605.716 534.249C605.716 535.567 605.205 536.832 604.292 537.781C603.378 538.73 602.132 539.287 600.816 539.337ZM594.611 532.018C594.041 532.05 593.505 532.3 593.113 532.714C592.721 533.129 592.503 533.679 592.503 534.249C592.503 534.82 592.721 535.369 593.113 535.784C593.505 536.199 594.041 536.448 594.611 536.481H600.816C601.386 536.448 601.922 536.199 602.314 535.784C602.706 535.369 602.924 534.82 602.924 534.249C602.924 533.679 602.706 533.129 602.314 532.714C601.922 532.3 601.386 532.05 600.816 532.018H594.611Z" fill="#262626"/>
<path d="M631.16 443.568H588.834C585.183 443.568 582.223 446.528 582.223 450.179V473.092C582.223 476.743 585.183 479.703 588.834 479.703H631.16C634.812 479.703 637.772 476.743 637.772 473.092V450.179C637.772 446.528 634.812 443.568 631.16 443.568Z" fill="#F9B800"/>
<path d="M609.997 470.764C608.187 470.764 606.417 470.227 604.912 469.221C603.407 468.215 602.233 466.786 601.541 465.113C600.848 463.441 600.666 461.6 601.02 459.825C601.373 458.049 602.245 456.418 603.525 455.138C604.805 453.858 606.436 452.986 608.211 452.633C609.987 452.279 611.828 452.461 613.5 453.154C615.173 453.846 616.602 455.02 617.608 456.525C618.614 458.03 619.151 459.8 619.151 461.61C619.149 464.037 618.184 466.364 616.468 468.081C614.751 469.797 612.424 470.762 609.997 470.764ZM609.997 455.313C608.752 455.313 607.534 455.682 606.499 456.374C605.463 457.066 604.656 458.05 604.179 459.2C603.702 460.351 603.578 461.617 603.821 462.839C604.064 464.06 604.664 465.183 605.544 466.063C606.425 466.944 607.547 467.544 608.769 467.787C609.99 468.03 611.256 467.905 612.407 467.428C613.558 466.952 614.541 466.145 615.233 465.109C615.925 464.073 616.295 462.856 616.295 461.61C616.293 459.941 615.629 458.34 614.448 457.159C613.268 455.979 611.667 455.315 609.997 455.313Z" fill="#262626"/>
<path d="M587.456 470.764H582.223V467.908H587.456C588.852 467.751 590.141 467.086 591.077 466.038C592.013 464.991 592.531 463.636 592.531 462.232C592.531 460.827 592.013 459.472 591.077 458.425C590.141 457.378 588.852 456.712 587.456 456.555H582.223V453.699H587.456C589.584 453.894 591.563 454.877 593.004 456.456C594.444 458.034 595.243 460.094 595.243 462.232C595.243 464.369 594.444 466.429 593.004 468.007C591.563 469.586 589.584 470.569 587.456 470.764Z" fill="#262626"/>
<path d="M637.859 470.807H632.604C630.468 470.621 628.479 469.642 627.03 468.061C625.581 466.481 624.777 464.415 624.777 462.271C624.777 460.127 625.581 458.061 627.03 456.48C628.479 454.9 630.468 453.92 632.604 453.735H637.838V456.591H632.604C631.202 456.74 629.904 457.403 628.962 458.452C628.019 459.5 627.497 460.861 627.497 462.271C627.497 463.681 628.019 465.041 628.962 466.09C629.904 467.138 631.202 467.801 632.604 467.951H637.838L637.859 470.807Z" fill="#262626"/>
<path d="M670.643 292.604H495.649C490.178 292.589 484.936 290.41 481.067 286.542C477.198 282.675 475.017 277.433 475 271.963V164.734C475.015 159.262 477.195 154.019 481.065 150.15C484.934 146.281 490.177 144.1 495.649 144.085H670.643C676.115 144.1 681.358 146.281 685.227 150.15C689.097 154.019 691.277 159.262 691.292 164.734V271.963C691.275 277.433 689.094 282.675 685.225 286.542C681.356 290.41 676.114 292.589 670.643 292.604ZM495.649 146.948C490.935 146.963 486.418 148.843 483.084 152.176C479.751 155.51 477.871 160.027 477.856 164.741V271.963C477.862 276.679 479.738 281.201 483.074 284.535C486.41 287.87 490.932 289.745 495.649 289.748H670.643C675.36 289.745 679.882 287.87 683.218 284.535C686.554 281.201 688.43 276.679 688.436 271.963V164.734C688.421 160.02 686.542 155.503 683.208 152.169C679.874 148.836 675.357 146.956 670.643 146.941L495.649 146.948Z" fill="#262626"/>
<path d="M566.068 172.817H511.133C505.474 172.817 500.887 177.404 500.887 183.063V247.565C500.887 253.224 505.474 257.811 511.133 257.811H566.068C571.726 257.811 576.314 253.224 576.314 247.565V183.063C576.314 177.404 571.726 172.817 566.068 172.817Z" fill="#FFE18B"/>
<path d="M540.028 218.348H537.172V257.818H540.028V218.348Z" fill="#262626"/>
<path d="M609.424 174.602H596.129C594.138 174.602 592.523 176.216 592.523 178.207V191.502C592.523 193.493 594.138 195.108 596.129 195.108H609.424C611.415 195.108 613.03 193.493 613.03 191.502V178.207C613.03 176.216 611.415 174.602 609.424 174.602Z" fill="#F9B800"/>
<path d="M638.182 174.602H624.887C622.896 174.602 621.281 176.216 621.281 178.207V191.502C621.281 193.493 622.896 195.108 624.887 195.108H638.182C640.173 195.108 641.787 193.493 641.787 191.502V178.207C641.787 176.216 640.173 174.602 638.182 174.602Z" fill="#F9B800"/>
<path d="M666.951 174.602H653.656C651.665 174.602 650.051 176.216 650.051 178.207V191.502C650.051 193.493 651.665 195.108 653.656 195.108H666.951C668.943 195.108 670.557 193.493 670.557 191.502V178.207C670.557 176.216 668.943 174.602 666.951 174.602Z" fill="#F9B800"/>
<path d="M670.563 215.214H593.944C593.565 215.214 593.202 215.063 592.934 214.796C592.666 214.528 592.516 214.165 592.516 213.786C592.516 213.407 592.666 213.044 592.934 212.776C593.202 212.508 593.565 212.358 593.944 212.358H670.563C670.942 212.358 671.305 212.508 671.573 212.776C671.84 213.044 671.991 213.407 671.991 213.786C671.991 214.165 671.84 214.528 671.573 214.796C671.305 215.063 670.942 215.214 670.563 215.214Z" fill="#262626"/>
<path d="M670.563 230.329H593.944C593.565 230.329 593.202 230.179 592.934 229.911C592.666 229.643 592.516 229.28 592.516 228.901C592.516 228.522 592.666 228.159 592.934 227.891C593.202 227.624 593.565 227.473 593.944 227.473H670.563C670.942 227.473 671.305 227.624 671.573 227.891C671.84 228.159 671.991 228.522 671.991 228.901C671.991 229.28 671.84 229.643 671.573 229.911C671.305 230.179 670.942 230.329 670.563 230.329Z" fill="#262626"/>
<path d="M643.896 245.445H593.916C593.538 245.445 593.174 245.294 592.907 245.026C592.639 244.759 592.488 244.395 592.488 244.017C592.488 243.638 592.639 243.275 592.907 243.007C593.174 242.739 593.538 242.589 593.916 242.589H643.896C644.275 242.589 644.638 242.739 644.906 243.007C645.174 243.275 645.324 243.638 645.324 244.017C645.324 244.395 645.174 244.759 644.906 245.026C644.638 245.294 644.275 245.445 643.896 245.445Z" fill="#262626"/>
<path d="M552.824 218.348H524.207C523.908 218.348 523.611 218.289 523.334 218.174C523.057 218.059 522.806 217.891 522.594 217.679C522.383 217.466 522.215 217.214 522.101 216.937C521.987 216.66 521.929 216.363 521.93 216.063V201.591C521.93 201.248 522.066 200.919 522.308 200.677C522.551 200.435 522.879 200.298 523.222 200.298H553.803C553.973 200.297 554.142 200.33 554.299 200.395C554.457 200.459 554.6 200.554 554.721 200.674C554.842 200.794 554.938 200.937 555.003 201.094C555.068 201.252 555.102 201.42 555.102 201.591V216.063C555.103 216.363 555.045 216.66 554.931 216.937C554.817 217.214 554.649 217.466 554.438 217.679C554.226 217.891 553.975 218.059 553.698 218.174C553.421 218.289 553.124 218.348 552.824 218.348Z" fill="#FFBB45"/>
<path d="M538.516 205.482C547.676 205.482 555.102 203.161 555.102 200.298C555.102 197.436 547.676 195.115 538.516 195.115C529.356 195.115 521.93 197.436 521.93 200.298C521.93 203.161 529.356 205.482 538.516 205.482Z" fill="#262626"/>
<path d="M401.689 494.566H256.033C255.655 494.566 255.292 494.416 255.024 494.148C254.756 493.88 254.605 493.517 254.605 493.138C254.605 492.76 254.756 492.396 255.024 492.129C255.292 491.861 255.655 491.71 256.033 491.71H401.689C402.068 491.71 402.431 491.861 402.699 492.129C402.967 492.396 403.117 492.76 403.117 493.138C403.117 493.517 402.967 493.88 402.699 494.148C402.431 494.416 402.068 494.566 401.689 494.566Z" fill="white"/>
</svg>
